HIERARCHY
ROOT Root
{
  OFFSET 0.0 0.0 0.0
  CHANNELS 6 Xposition Yposition Zposition Zrotation Yrotation Xrotation
  JOINT Hips
  {
    OFFSET 0.0 100.0 0.0
    CHANNELS 6 Xposition Yposition Zposition Zrotation Yrotation Xrotation
    JOINT Spine1
    {
      OFFSET 5.003913 -0.037094 -0.013727
      CHANNELS 3 Zrotation Yrotation Xrotation
      JOINT Spine2
      {
        OFFSET 7.125363 -1e-06 0.0
        CHANNELS 3 Zrotation Yrotation Xrotation
        JOINT Chest
        {
          OFFSET 7.594027 1e-06 0.0
          CHANNELS 3 Zrotation Yrotation Xrotation
          JOINT Neck1
          {
            OFFSET 26.313086 -0.460272 -0.181672
            CHANNELS 3 Zrotation Yrotation Xrotation
            JOINT Neck2
            {
              OFFSET 8.045911 0.0 0.0
              CHANNELS 3 Zrotation Yrotation Xrotation
              JOINT Head
              {
                OFFSET 6.432774 0.0 0.0
                CHANNELS 3 Zrotation Yrotation Xrotation
                JOINT HeadEnd
                {
                  OFFSET 16.169773 0.06451 0.00362
                  CHANNELS 3 Zrotation Yrotation Xrotation
                }
                JOINT Jaw
                {
                  OFFSET 0.108741 3.12938 0.002639
                  CHANNELS 3 Zrotation Yrotation Xrotation
                }
                JOINT LeftEye
                {
                  OFFSET 4.45173 8.166359 3.206392
                  CHANNELS 3 Zrotation Yrotation Xrotation
                }
                JOINT RightEye
                {
                  OFFSET 4.436895 8.135758 -3.222429
                  CHANNELS 3 Zrotation Yrotation Xrotation
                }
              }
            }
          }
          JOINT LeftShoulder
          {
            OFFSET 23.218927 5.195579 1.621656
            CHANNELS 3 Zrotation Yrotation Xrotation
            JOINT LeftArm
            {
              OFFSET 15.902118 2e-06 -2e-06
              CHANNELS 3 Zrotation Yrotation Xrotation
              JOINT LeftForeArm
              {
                OFFSET 28.739307 0.0 -1e-06
                CHANNELS 3 Zrotation Yrotation Xrotation
                JOINT LeftHand
                {
                  OFFSET 27.093981 -4e-06 0.0
                  CHANNELS 3 Zrotation Yrotation Xrotation
                  JOINT LeftHandThumb1
                  {
                    OFFSET 2.276781 3.380274 0.83384
                    CHANNELS 3 Zrotation Yrotation Xrotation
                    JOINT LeftHandThumb2
                    {
                      OFFSET 4.705309 -1e-06 -1e-06
                      CHANNELS 3 Zrotation Yrotation Xrotation
                      JOINT LeftHandThumb3
                      {
                        OFFSET 2.798515 0.0 3e-06
                        CHANNELS 3 Zrotation Yrotation Xrotation
                        JOINT LeftHandThumbEnd
                        {
                          OFFSET 3.180793 4e-06 -4e-06
                          CHANNELS 3 Zrotation Yrotation Xrotation
                        }
                      }
                    }
                  }
                  JOINT LeftHandIndex1
                  {
                    OFFSET 3.247786 2.352677 0.137192
                    CHANNELS 3 Zrotation Yrotation Xrotation
                    JOINT LeftHandIndex2
                    {
                      OFFSET 6.367095 1e-06 0.0
                      CHANNELS 3 Zrotation Yrotation Xrotation
                      JOINT LeftHandIndex3
                      {
                        OFFSET 3.662364 0.0 0.0
                        CHANNELS 3 Zrotation Yrotation Xrotation
                        JOINT LeftHandIndex4
                        {
                          OFFSET 2.329242 4e-06 -4e-06
                          CHANNELS 3 Zrotation Yrotation Xrotation
                          JOINT LeftHandIndexEnd
                          {
                            OFFSET 2.767823 1e-06 0.0
                            CHANNELS 3 Zrotation Yrotation Xrotation
                          }
                        }
                      }
                    }
                  }
                  JOINT LeftHandMiddle1
                  {
                    OFFSET 3.163612 0.945023 -0.406112
                    CHANNELS 3 Zrotation Yrotation Xrotation
                    JOINT LeftHandMiddle2
                    {
                      OFFSET 6.276789 3e-06 0.0
                      CHANNELS 3 Zrotation Yrotation Xrotation
                      JOINT LeftHandMiddle3
                      {
                        OFFSET 4.35652 -1e-06 4e-06
                        CHANNELS 3 Zrotation Yrotation Xrotation
                        JOINT LeftHandMiddle4
                        {
                          OFFSET 2.996877 0.0 8e-06
                          CHANNELS 3 Zrotation Yrotation Xrotation
                          JOINT LeftHandMiddleEnd
                          {
                            OFFSET 2.323256 3e-06 -4e-06
                            CHANNELS 3 Zrotation Yrotation Xrotation
                          }
                        }
                      }
                    }
                  }
                  JOINT LeftHandRing1
                  {
                    OFFSET 2.882606 -0.309162 0.107445
                    CHANNELS 3 Zrotation Yrotation Xrotation
                    JOINT LeftHandRing2
                    {
                      OFFSET 6.033198 0.0 4e-06
                      CHANNELS 3 Zrotation Yrotation Xrotation
                      JOINT LeftHandRing3
                      {
                        OFFSET 4.350578 3e-06 0.0
                        CHANNELS 3 Zrotation Yrotation Xrotation
                        JOINT LeftHandRing4
                        {
                          OFFSET 2.651321 2e-06 -7e-06
                          CHANNELS 3 Zrotation Yrotation Xrotation
                          JOINT LeftHandRingEnd
                          {
                            OFFSET 1.937663 1e-06 -4e-06
                            CHANNELS 3 Zrotation Yrotation Xrotation
                          }
                        }
                      }
                    }
                  }
                  JOINT LeftHandPinky1
                  {
                    OFFSET 2.865315 -1.525436 0.575687
                    CHANNELS 3 Zrotation Yrotation Xrotation
                    JOINT LeftHandPinky2
                    {
                      OFFSET 5.54936 1e-06 -8e-06
                      CHANNELS 3 Zrotation Yrotation Xrotation
                      JOINT LeftHandPinky3
                      {
                        OFFSET 3.070974 0.0 -4e-06
                        CHANNELS 3 Zrotation Yrotation Xrotation
                        JOINT LeftHandPinky4
                        {
                          OFFSET 1.549672 1e-06 0.0
                          CHANNELS 3 Zrotation Yrotation Xrotation
                          JOINT LeftHandPinkyEnd
                          {
                            OFFSET 1.952123 0.0 0.0
                            CHANNELS 3 Zrotation Yrotation Xrotation
                          }
                        }
                      }
                    }
                  }
                }
              }
            }
          }
          JOINT RightShoulder
          {
            OFFSET 23.161716 5.296122 -1.380114
            CHANNELS 3 Zrotation Yrotation Xrotation
            JOINT RightArm
            {
              OFFSET -16.027195 -2e-06 1.1e-05
              CHANNELS 3 Zrotation Yrotation Xrotation
              JOINT RightForeArm
              {
                OFFSET -28.736639 4e-06 2e-06
                CHANNELS 3 Zrotation Yrotation Xrotation
                JOINT RightHand
                {
                  OFFSET -27.133619 6e-06 0.0
                  CHANNELS 3 Zrotation Yrotation Xrotation
                  JOINT RightHandThumb1
                  {
                    OFFSET -2.274328 -3.351035 -0.83067
                    CHANNELS 3 Zrotation Yrotation Xrotation
                    JOINT RightHandThumb2
                    {
                      OFFSET -4.703594 -3e-06 2e-06
                      CHANNELS 3 Zrotation Yrotation Xrotation
                      JOINT RightHandThumb3
                      {
                        OFFSET -2.794935 -4e-06 -3e-06
                        CHANNELS 3 Zrotation Yrotation Xrotation
                        JOINT RightHandThumbEnd
                        {
                          OFFSET -3.183852 4e-06 1e-06
                          CHANNELS 3 Zrotation Yrotation Xrotation
                        }
                      }
                    }
                  }
                  JOINT RightHandIndex1
                  {
                    OFFSET -3.253496 -2.33755 -0.127667
                    CHANNELS 3 Zrotation Yrotation Xrotation
                    JOINT RightHandIndex2
                    {
                      OFFSET -6.344434 0.0 0.0
                      CHANNELS 3 Zrotation Yrotation Xrotation
                      JOINT RightHandIndex3
                      {
                        OFFSET -3.654871 0.0 -8e-06
                        CHANNELS 3 Zrotation Yrotation Xrotation
                        JOINT RightHandIndex4
                        {
                          OFFSET -2.327586 -1e-06 0.0
                          CHANNELS 3 Zrotation Yrotation Xrotation
                          JOINT RightHandIndexEnd
                          {
                            OFFSET -2.770001 3e-06 8e-06
                            CHANNELS 3 Zrotation Yrotation Xrotation
                          }
                        }
                      }
                    }
                  }
                  JOINT RightHandMiddle1
                  {
                    OFFSET -3.168223 -0.944764 0.411762
                    CHANNELS 3 Zrotation Yrotation Xrotation
                    JOINT RightHandMiddle2
                    {
                      OFFSET -6.266691 -1e-06 -4e-06
                      CHANNELS 3 Zrotation Yrotation Xrotation
                      JOINT RightHandMiddle3
                      {
                        OFFSET -4.348901 0.0 0.0
                        CHANNELS 3 Zrotation Yrotation Xrotation
                        JOINT RightHandMiddle4
                        {
                          OFFSET -3.00024 2e-06 -4e-06
                          CHANNELS 3 Zrotation Yrotation Xrotation
                          JOINT RightHandMiddleEnd
                          {
                            OFFSET -2.321477 -4e-06 -4e-06
                            CHANNELS 3 Zrotation Yrotation Xrotation
                          }
                        }
                      }
                    }
                  }
                  JOINT RightHandRing1
                  {
                    OFFSET -2.885654 0.293261 -0.119232
                    CHANNELS 3 Zrotation Yrotation Xrotation
                    JOINT RightHandRing2
                    {
                      OFFSET -6.032835 -1e-06 -4e-06
                      CHANNELS 3 Zrotation Yrotation Xrotation
                      JOINT RightHandRing3
                      {
                        OFFSET -4.33881 0.0 -4e-06
                        CHANNELS 3 Zrotation Yrotation Xrotation
                        JOINT RightHandRing4
                        {
                          OFFSET -2.654903 -4e-06 -4e-06
                          CHANNELS 3 Zrotation Yrotation Xrotation
                          JOINT RightHandRingEnd
                          {
                            OFFSET -1.935122 0.0 4e-06
                            CHANNELS 3 Zrotation Yrotation Xrotation
                          }
                        }
                      }
                    }
                  }
                  JOINT RightHandPinky1
                  {
                    OFFSET -2.866241 1.503904 -0.60527
                    CHANNELS 3 Zrotation Yrotation Xrotation
                    JOINT RightHandPinky2
                    {
                      OFFSET -5.553177 -2e-06 0.0
                      CHANNELS 3 Zrotation Yrotation Xrotation
                      JOINT RightHandPinky3
                      {
                        OFFSET -3.062664 -1e-06 -4e-06
                        CHANNELS 3 Zrotation Yrotation Xrotation
                        JOINT RightHandPinky4
                        {
                          OFFSET -1.546529 2e-06 4e-06
                          CHANNELS 3 Zrotation Yrotation Xrotation
                          JOINT RightHandPinkyEnd
                          {
                            OFFSET -1.952341 0.0 -4e-06
                            CHANNELS 3 Zrotation Yrotation Xrotation
                          }
                        }
                      }
                    }
                  }
                }
              }
            }
          }
        }
      }
    }
    JOINT LeftLeg
    {
      OFFSET -8.443107 2.567604 10.043214
      CHANNELS 3 Zrotation Yrotation Xrotation
      JOINT LeftShin
      {
        OFFSET 43.229198 1e-06 -1e-06
        CHANNELS 3 Zrotation Yrotation Xrotation
        JOINT LeftFoot
        {
          OFFSET 42.298611 1e-06 1e-06
          CHANNELS 3 Zrotation Yrotation Xrotation
          JOINT LeftToeBase
          {
            OFFSET 14.165858 1e-06 0.0
            CHANNELS 3 Zrotation Yrotation Xrotation
            JOINT LeftToeEnd
            {
              OFFSET 6.7141 -0.234461 0.0
              CHANNELS 3 Zrotation Yrotation Xrotation
            }
          }
        }
      }
    }
    JOINT RightLeg
    {
      OFFSET -8.303923 2.592729 -10.047278
      CHANNELS 3 Zrotation Yrotation Xrotation
      JOINT RightShin
      {
        OFFSET -43.369682 0.0 1e-06
        CHANNELS 3 Zrotation Yrotation Xrotation
        JOINT RightFoot
        {
          OFFSET -42.260784 4e-06 2e-06
          CHANNELS 3 Zrotation Yrotation Xrotation
          JOINT RightToeBase
          {
            OFFSET -14.222245 -2e-06 -1e-06
            CHANNELS 3 Zrotation Yrotation Xrotation
            JOINT RightToeEnd
            {
              OFFSET -6.660062 0.232574 -2e-06
              CHANNELS 3 Zrotation Yrotation Xrotation
            }
          }
        }
      }
    }
  }
}
MOTION
Frames: 4
Frame Time: 0.03333333333333333
0.0 0.0 0.0 0.0 -0.0 0.0 0.340798 99.605904 -2.046619 89.026428 3.789953 89.852173 -2.399639 0.859208 -0.446708 -11.741048 -0.424705 -0.587245 15.156758 0.510785 -2.74198 21.652557 -2.714571 2.699697 -2.600297 -0.534908 -0.87006 -31.078453 0.399512 -1.987374 7e-06 0.0 0.0 0.014053 0.020329 0.006646 0.041815 0.005437 0.005023 0.035684 0.032063 0.01335 -123.166191 -72.620041 138.603027 41.456566 -55.942108 24.427139 22.896378 0.438551 -0.067958 -2.080472 -1.140002 3.456636 17.636625 -26.322739 52.411205 -19.46666 -14.395597 29.410395 -1e-06 -8.774822 -2e-06 16.106487 -17.907175 6.044924 -0.609776 -1.795653 -3.88933 -4.807087 -11.046809 -2.937851 5e-06 -20.976019 1e-06 -5.019969 -25.033556 -4.031878 5e-06 1e-06 -1e-06 -10.634533 -5.68697 -3.565589 10.573274 -17.922951 -3.113899 4e-06 -13.821208 -0.0 -0.501779 -31.181498 -4.027011 -11.55759 -59.975121 7.190016 -13.982712 -7.150198 -2.875042 13.77273 -8.401493 -3.218242 0.347735 -34.211552 0.771656 -0.963032 -17.73337 2.621023 0.0 1e-06 2e-06 -17.346413 -20.095215 -4.201787 21.757555 -1.638376 3.866427 2e-06 -6.338822 1e-06 -1.697589 -22.591743 -6.194004 1e-06 -2e-06 -3e-06 47.769901 -74.860924 147.242462 31.221867 -60.681431 9.492837 26.016592 0.028853 0.029839 -1.9655 4.074616 -3.140363 22.182114 -20.375895 49.933319 -16.701811 -16.743532 28.476532 -3e-06 -12.690603 -1e-06 16.023766 -17.520132 2.631805 -0.105918 -1.513856 -4.275881 -5.03904 -5.61287 -2.953555 4e-06 -11.020523 -2e-06 -6.111294 -15.89533 -3.840472 -0.0 1e-06 0.0 -10.283369 -5.680287 -4.341837 11.028294 -11.302404 -2.372633 -1.384268 -14.238579 -6.320121 -0.625437 -26.924187 -3.827601 -4.04225 -49.633228 -3.754194 -13.708525 -7.363475 -3.720939 18.141151 -14.052739 -3.242675 7e-06 -18.787268 -1e-06 -0.42971 -8.456042 2.555503 0.0 -1e-06 0.0 -15.923536 -20.094482 -5.473586 30.419214 -7.190825 1.735926 2e-06 -8.162927 -1e-06 -1.8619 -22.861467 -6.167943 1e-06 -4e-06 -1e-06 177.056366 -5.608793 -0.333156 18.171457 -0.010946 0.08236 -80.539391 0.837228 -5.229253 -6.684406 1.587115 2.122496 -0.999999 -0.0 0.0 -0.830348 -3.122381 -5.518702 15.665285 -0.031681 0.010494 -78.966774 -7.669806 -8.650131 -6.85117 0.780141 1.643888 -1.000002 -0.0 -0.0 
0.0 0.0 0.0 0.0 -0.0 0.0 0.313231 99.626213 -2.049558 89.025955 3.79656 89.860336 -2.407175 0.824986 -0.47416 -11.723108 -0.39445 -0.525879 15.125523 0.500373 -2.789121 21.654364 -2.729615 2.69077 -2.575377 -0.518331 -0.824028 -31.060852 0.354744 -1.959778 5e-06 -0.0 0.0 0.014122 0.022847 0.031824 0.057253 0.009597 0.033138 0.049391 0.033076 0.035683 -123.076271 -72.618698 138.590103 41.576141 -55.968338 24.329807 22.833405 0.391681 -0.098918 -1.999091 -1.099358 3.580661 17.636621 -26.322729 52.411194 -19.466656 -14.395596 29.410389 0.0 -8.774819 -2e-06 16.068241 -17.884624 6.048323 -0.609776 -1.795654 -3.889328 -4.807088 -11.046809 -2.937849 2e-06 -20.976011 -1e-06 -5.019969 -25.033556 -4.031883 7e-06 1e-06 1e-06 -10.634531 -5.68697 -3.565588 10.573269 -17.922945 -3.113899 2e-06 -13.821205 -3e-06 -0.50178 -31.181498 -4.027012 -11.48592 -59.925655 7.207279 -13.982712 -7.150198 -2.875041 13.772726 -8.401488 -3.218241 0.347734 -34.21154 0.771651 -0.96303 -17.733364 2.621018 1e-06 1e-06 0.0 -17.346416 -20.095213 -4.201785 21.757553 -1.638372 3.866427 2e-06 -6.338821 -1e-06 -1.69759 -22.591738 -6.194005 1e-06 -4e-06 0.0 47.764599 -74.834709 147.328629 31.193668 -60.730949 9.41291 25.938856 0.022917 0.013248 -1.908867 4.017338 -3.035927 22.182117 -20.375896 49.933327 -16.701809 -16.743528 28.47653 -3e-06 -12.690601 -2e-06 16.039406 -17.521444 2.624774 -0.105918 -1.513855 -4.275881 -5.039041 -5.612873 -2.953557 3e-06 -11.020525 -1e-06 -6.1113 -15.895334 -3.840472 -0.0 2e-06 0.0 -10.283371 -5.680288 -4.341839 11.028294 -11.302404 -2.372633 -1.38427 -14.238582 -6.32012 -0.62544 -26.924192 -3.827599 -4.062531 -49.753307 -3.709256 -13.708525 -7.363476 -3.720939 18.141148 -14.052739 -3.242674 3e-06 -18.787268 -1e-06 -0.429712 -8.456044 2.555503 -0.0 -0.0 3e-06 -15.923536 -20.094484 -5.473584 30.41921 -7.190823 1.735927 2e-06 -8.162928 -1e-06 -1.861903 -22.861467 -6.167942 1e-06 -6e-06 -3e-06 177.154099 -5.628185 -0.306441 17.980194 0.002235 0.119535 -80.44577 0.856883 -5.306064 -6.729909 1.605928 2.124554 -0.999999 0.0 -0.0 -0.731866 -3.084071 -5.479227 15.475486 -0.036757 0.027288 -78.874321 -7.716828 -8.631418 -6.866988 0.770673 1.646623 -1.000002 -0.0 -0.0 
0.0 0.0 0.0 0.0 -0.0 0.0 0.283687 99.627045 -2.066747 89.0364 3.797453 89.857079 -2.420907 0.79236 -0.496629 -11.731887 -0.380826 -0.501938 15.154149 0.488736 -2.79709 21.627737 -2.758168 2.69943 -2.591643 -0.49136 -0.818749 -30.970572 0.316374 -1.944576 5e-06 0.0 0.0 0.013031 0.024797 0.043149 0.052077 0.011225 0.047215 0.045684 0.035205 0.044019 -123.036362 -72.638634 138.573883 41.594101 -56.014812 24.340981 22.851048 0.35367 -0.116784 -1.942367 -1.077553 3.547263 17.636631 -26.322735 52.411205 -19.466665 -14.3956 29.410395 -1e-06 -8.774822 -1e-06 16.06637 -17.881804 6.048846 -0.609776 -1.795654 -3.889326 -4.807088 -11.046811 -2.93785 5e-06 -20.976019 -1e-06 -5.01997 -25.03356 -4.031881 6e-06 -0.0 2e-06 -10.634535 -5.686971 -3.565589 10.573276 -17.922951 -3.113899 4e-06 -13.821209 -1e-06 -0.501778 -31.181505 -4.02701 -11.486608 -59.852463 7.21191 -13.982716 -7.150197 -2.875043 13.772733 -8.401493 -3.218243 0.347736 -34.211555 0.771655 -0.963029 -17.73337 2.621022 -0.0 1e-06 0.0 -17.346416 -20.095217 -4.201782 21.757563 -1.638375 3.866426 3e-06 -6.338823 0.0 -1.697587 -22.591742 -6.194005 0.0 -3e-06 -1e-06 47.721176 -74.810043 147.438385 31.124151 -60.756386 9.357924 25.912792 -0.00281 -0.003146 -1.874775 4.014554 -2.970252 22.182116 -20.375893 49.933319 -16.701807 -16.743528 28.476528 -3e-06 -12.690599 -1e-06 16.045393 -17.495657 2.633163 -0.105921 -1.513856 -4.275883 -5.03904 -5.612869 -2.953556 4e-06 -11.02052 -3e-06 -6.111296 -15.895328 -3.840472 -0.0 0.0 1e-06 -10.283371 -5.680287 -4.34184 11.028292 -11.302402 -2.372632 -1.384269 -14.238577 -6.320121 -0.625439 -26.924187 -3.827601 -4.075806 -49.792747 -3.686041 -13.708522 -7.363473 -3.720941 18.141146 -14.052737 -3.242672 5e-06 -18.787264 -0.0 -0.429714 -8.456039 2.555503 -0.0 -0.0 1e-06 -15.923532 -20.094481 -5.473587 30.419205 -7.190824 1.735926 2e-06 -8.162927 -1e-06 -1.861901 -22.861467 -6.16794 0.0 -3e-06 -2e-06 177.162262 -5.633963 -0.284975 17.943182 0.004689 0.138109 -80.42025 0.875835 -5.349036 -6.710312 1.609056 2.125823 -0.999999 -0.0 0.0 -0.760835 -3.07232 -5.429364 15.511093 -0.034038 0.024891 -78.881393 -7.780436 -8.627223 -6.826504 0.769442 1.648926 -1.0 0.0 0.0 
0.0 0.0 0.0 0.0 -0.0 0.0 0.259231 99.625916 -2.090367 89.042305 3.797407 89.86515 -2.422495 0.765096 -0.509208 -11.743248 -0.373081 -0.506301 15.191851 0.477656 -2.780262 21.596178 -2.797908 2.706079 -2.617046 -0.475913 -0.807597 -30.912172 0.294702 -1.954019 6e-06 0.0 -0.0 0.011634 0.024122 0.042935 0.03808 0.010219 0.048841 0.033033 0.034737 0.041475 -123.044838 -72.659325 138.597107 41.606308 -56.054817 24.447351 22.901497 0.341206 -0.114438 -1.878052 -1.049202 3.495503 17.636621 -26.322729 52.411194 -19.46666 -14.395596 29.410393 -1e-06 -8.774819 -2e-06 16.062326 -17.866838 6.038793 -0.609776 -1.795653 -3.889327 -4.807089 -11.046809 -2.937848 2e-06 -20.976013 -0.0 -5.019971 -25.033556 -4.031882 6e-06 1e-06 -0.0 -10.634533 -5.686972 -3.565589 10.573272 -17.922947 -3.113899 3e-06 -13.821209 -3e-06 -0.501779 -31.181505 -4.027015 -11.474039 -59.787926 7.182699 -13.982711 -7.150197 -2.875047 13.772727 -8.40149 -3.218242 0.347734 -34.211544 0.771655 -0.963028 -17.733362 2.621019 1e-06 1e-06 0.0 -17.346413 -20.095217 -4.20178 21.757553 -1.638374 3.866426 2e-06 -6.338822 1e-06 -1.697588 -22.591738 -6.194005 0.0 -1e-06 -1e-06 47.660706 -74.794098 147.551437 31.036093 -60.774715 9.442519 25.919226 0.00646 -0.00545 -1.88705 3.962134 -2.976868 22.182114 -20.375898 49.933327 -16.701811 -16.74353 28.476532 -3e-06 -12.690601 -2e-06 16.052692 -17.467937 2.643679 -0.105917 -1.513855 -4.27588 -5.039042 -5.612873 -2.953557 4e-06 -11.020525 -1e-06 -6.1113 -15.895334 -3.840469 -0.0 1e-06 1e-06 -10.283369 -5.680288 -4.341838 11.028293 -11.302405 -2.372633 -1.384269 -14.23858 -6.320119 -0.625441 -26.924191 -3.8276 -4.098145 -49.766476 -3.665822 -13.708526 -7.363478 -3.72094 18.141151 -14.052742 -3.242674 6e-06 -18.78727 -1e-06 -0.429712 -8.456046 2.555505 0.0 -0.0 1e-06 -15.923534 -20.094484 -5.473585 30.419214 -7.190826 1.735925 1e-06 -8.16293 -1e-06 -1.861901 -22.861469 -6.167942 1e-06 -4e-06 -1e-06 177.147018 -5.64201 -0.273506 17.937527 0.002668 0.144051 -80.401649 0.888816 -5.3721 -6.682119 1.600876 2.123038 -0.999999 0.0 0.0 -0.798344 -3.058633 -5.376542 15.556887 -0.030271 0.009333 -78.888924 -7.849813 -8.636748 -6.788435 0.766078 1.649135 -1.000002 1e-06 -0.0 
